<svg xmlns="http://www.w3.org/2000/svg" width="512" height="512" viewBox="0 0 100 100" fill="none" role="img" aria-labelledby="title description">
    <title id="title">Lobby the Lobster</title>
    <desc id="description">A red lobster mascot with lime green antenna tips.</desc>
    <ellipse cx="50" cy="58" rx="18" ry="22" fill="#e8341a"/>
    <ellipse cx="50" cy="36" rx="13" ry="12" fill="#e8341a"/>
    <circle cx="44" cy="30" r="3.5" fill="#111"/>
    <circle cx="56" cy="30" r="3.5" fill="#111"/>
    <circle cx="43" cy="29" r="1.2" fill="#c8ff00"/>
    <circle cx="55" cy="29" r="1.2" fill="#c8ff00"/>
    <line x1="44" y1="25" x2="30" y2="10" stroke="#e8341a" stroke-width="1.8" stroke-linecap="round"/>
    <line x1="56" y1="25" x2="70" y2="10" stroke="#e8341a" stroke-width="1.8" stroke-linecap="round"/>
    <circle cx="30" cy="10" r="2" fill="#c8ff00"/>
    <circle cx="70" cy="10" r="2" fill="#c8ff00"/>
    <path d="M34 50 Q18 46 14 38" stroke="#c0291a" stroke-width="4" stroke-linecap="round"/>
    <ellipse cx="11" cy="34" rx="7" ry="5" fill="#c0291a" transform="rotate(-20 11 34)"/>
    <ellipse cx="8" cy="30" rx="4" ry="3" fill="#c0291a" transform="rotate(-35 8 30)"/>
    <path d="M66 50 Q82 46 86 38" stroke="#c0291a" stroke-width="4" stroke-linecap="round"/>
    <ellipse cx="89" cy="34" rx="7" ry="5" fill="#c0291a" transform="rotate(20 89 34)"/>
    <ellipse cx="92" cy="30" rx="4" ry="3" fill="#c0291a" transform="rotate(35 92 30)"/>
    <path d="M42 78 Q38 90 32 94" stroke="#c0291a" stroke-width="3" stroke-linecap="round"/>
    <path d="M50 80 Q50 93 50 97" stroke="#c0291a" stroke-width="3" stroke-linecap="round"/>
    <path d="M58 78 Q62 90 68 94" stroke="#c0291a" stroke-width="3" stroke-linecap="round"/>
    <path d="M34 54 Q50 58 66 54" stroke="#c0291a" stroke-width="1.5" opacity="0.6"/>
    <path d="M33 62 Q50 67 67 62" stroke="#c0291a" stroke-width="1.5" opacity="0.6"/>
    <path d="M35 70 Q50 75 65 70" stroke="#c0291a" stroke-width="1.5" opacity="0.6"/>
    <path d="M45 40 Q50 44 55 40" stroke="#111" stroke-width="1.5" stroke-linecap="round"/>
    <line x1="38" y1="65" x2="28" y2="72" stroke="#c0291a" stroke-width="1.5" stroke-linecap="round"/>
    <line x1="38" y1="70" x2="27" y2="78" stroke="#c0291a" stroke-width="1.5" stroke-linecap="round"/>
    <line x1="62" y1="65" x2="72" y2="72" stroke="#c0291a" stroke-width="1.5" stroke-linecap="round"/>
    <line x1="62" y1="70" x2="73" y2="78" stroke="#c0291a" stroke-width="1.5" stroke-linecap="round"/>
</svg>
